<?xml version="1.0" encoding="utf-8"?>
<!-- Generator: Adobe Illustrator 18.1.1, SVG Export Plug-In . SVG Version: 6.00 Build 0)  -->
<svg version="1.1" id="Layer_1" xmlns="http://www.w3.org/2000/svg" xmlns:xlink="http://www.w3.org/1999/xlink" x="0px" y="0px"
	 viewBox="0 0 475 350" enable-background="new 0 0 475 350" xml:space="preserve">
<rect x="-1.1" y="-2.9" opacity="0.7" fill="#C9B8A9" width="482.7" height="20"/>
<rect x="-1.1" y="20.1" opacity="0.7" fill="#C9B8A9" width="482.7" height="20"/>
<rect x="-1.1" y="43.1" opacity="0.7" fill="#C9B8A9" width="482.7" height="20"/>
<rect x="-1.1" y="66.1" opacity="0.7" fill="#C9B8A9" width="482.7" height="20"/>
<rect x="-1.1" y="89.1" opacity="0.7" fill="#C9B8A9" width="482.7" height="20"/>
<rect x="-1.1" y="112.1" opacity="0.7" fill="#C9B8A9" width="482.7" height="20"/>
<rect x="-1.1" y="135.1" opacity="0.7" fill="#C9B8A9" width="482.7" height="20"/>
<rect x="-1.1" y="158.1" opacity="0.7" fill="#C9B8A9" width="482.7" height="20"/>
<rect x="-1.1" y="181" opacity="0.7" fill="#C9B8A9" width="482.7" height="20"/>
<rect x="-3.5" y="204" opacity="0.7" fill="#C9B8A9" width="485.1" height="20"/>
<rect y="219" opacity="0.7" fill="#C9B8A9" width="475" height="5"/>
<rect x="441.8" y="-10" fill="#967D69" width="2.7" height="282"/>
<path fill="#967D69" d="M444.2,273.3l1-3.3c0-0.5-1.4-0.9-1.9-0.9s-1.9,0.4-1.9,0.9l1,3.5c-1.3,1-2.2,3.7-2.2,7
	c0,4.1,1.4,7.3,3.2,7.3s3.2-3.3,3.2-7.3C446.5,277,445.5,274.1,444.2,273.3z"/>
</svg>
