<?xml version="1.0" encoding="utf-8"?>
<!-- Generator: Adobe Illustrator 18.1.1, SVG Export Plug-In . SVG Version: 6.00 Build 0)  -->
<svg version="1.1" id="Layer_1" xmlns="http://www.w3.org/2000/svg" xmlns:xlink="http://www.w3.org/1999/xlink" x="0px" y="0px"
	 viewBox="0 0 506 357" enable-background="new 0 0 506 357" xml:space="preserve">
<path fill="#459695" stroke="#FFFFFF" stroke-miterlimit="10" d="M-267,381.1v331c0,0-27.1,9.4-46.4,0c-19.3-9.4-25.7,15.6-57,8.2
	c-31.3-7.3-44.7-22.4-60.7-7.7c-6.7,6.1-21.5,6.4-31.6,4.8c-7-1.1-21.9-4.1-21.3-7.9c2-13.3-0.4-328.4-0.4-328.4H-267z"/>
<line fill="#231F20" stroke="#FFFFFF" stroke-width="0.9858" stroke-miterlimit="10" x1="-332.6" y1="712.9" x2="-332.6" y2="382.1"/>
<line fill="#231F20" stroke="#FFFFFF" stroke-miterlimit="10" x1="-296.8" y1="715.6" x2="-296.8" y2="382.1"/>
<polyline fill="#231F20" stroke="#FFFFFF" stroke-width="0.9835" stroke-miterlimit="10" points="-428.6,710.6 -428.6,383.2 
	-428.6,382.6 -428.6,382.1 "/>
<polyline fill="#231F20" stroke="#FFFFFF" stroke-width="0.9981" stroke-miterlimit="10" points="-390.3,382.1 -390.3,382.6 
	-390.3,714.2 "/>
<g opacity="0.7">
	<path fill="#459695" d="M301.1-8.9h-41.4c0,0,2.9,331.9,0.5,346c-0.7,4.1,16.7,7.2,25,8.4c4.8,0.7,10.4,1,15.9,0.8V-8.9z"/>
	<path fill="#459695" d="M409.9-8.9h-66.4v343.7c11.6,2.5,25.5,9.4,46.1,13.7c8,1.7,14.7,1.7,20.3,0.9V-8.9z"/>
	<path fill="#348695" d="M344.7-8.9h-43.6v355.1c7.9-0.4,15.4-2.1,19.9-5.8c7.9-6.5,15.2-7.5,23.8-5.8V-8.9z"/>
	<path fill="#348695" d="M449.7-8.9h-40.7v358.1c17.7-3,26.3-14.6,40.7-10.9V-8.9z"/>
	<path fill="#459695" d="M448.3-8.9v347.5c1.1,0.3,2.2,0.7,3.3,1.2c22.6,9.9,54.4,0,54.4,0V-8.9H448.3z"/>
</g>
<g opacity="0.7">
	<path fill="#459695" d="M38.1-8.9H-1c0,0,2.7,331.9,0.5,346c-0.6,4.1,15.8,7.2,23.6,8.4c4.5,0.7,9.8,1,15,0.8V-8.9z"/>
	<path fill="#459695" d="M140-8.9H77.3v343.7c10.9,2.5,24.1,9.4,43.6,13.7c7.6,1.7,13.9,1.7,19.2,0.9V-8.9z"/>
	<path fill="#348695" d="M78.4-8.9H37.1v355.1c7.4-0.4,14.6-2.1,18.8-5.8c7.4-6.5,14.4-7.5,22.5-5.8V-8.9z"/>
	<path fill="#348695" d="M178.4-8.9h-38.5v358.1c16.7-3,24.8-14.6,38.5-10.9V-8.9z"/>
	<path fill="#459695" d="M177.3-8.9v347.5c1,0.3,2,0.7,3.1,1.2c21.4,9.9,51.4,0,51.4,0V-8.9H177.3z"/>
</g>
<g>
	<path fill="#459695" d="M818.4,55.1H783c0,0,2.4,315.1,0.4,328.4c-0.6,3.9,14.3,6.8,21.3,7.9c4.1,0.6,8.9,1,13.6,0.8V55.1z"/>
	<path fill="#459695" d="M912.4,55.1h-56.8v326.2c9.9,2.4,21.8,8.9,39.4,13c6.9,1.6,12.5,1.7,17.4,0.9V55.1z"/>
	<linearGradient id="SVGID_1_" gradientUnits="userSpaceOnUse" x1="818.3568" y1="223.6277" x2="855.638" y2="223.6277">
		<stop  offset="0" style="stop-color:#459695"/>
		<stop  offset="0.3013" style="stop-color:#348695"/>
		<stop  offset="1" style="stop-color:#347995"/>
	</linearGradient>
	<path fill="url(#SVGID_1_)" d="M855.6,55.1h-37.3v337c6.7-0.4,13.2-2,17-5.5c6.7-6.2,13-7.1,20.3-5.5V55.1z"/>
	<path fill="#348695" d="M947.2,55.1h-34.8V395c15.1-2.9,22.5-13.9,34.8-10.4V55.1z"/>
	<path fill="#459695" d="M947.2,55.1v329.8c0.9,0.3,1.8,0.7,2.8,1.2c19.3,9.4,46.4,0,46.4,0v-331H947.2z"/>
</g>
<linearGradient id="SVGID_2_" gradientUnits="userSpaceOnUse" x1="785.5659" y1="586.7008" x2="1003" y2="586.7008">
	<stop  offset="0.1067" style="stop-color:#459695"/>
	<stop  offset="0.2149" style="stop-color:#348695"/>
	<stop  offset="0.3249" style="stop-color:#347995"/>
	<stop  offset="0.4394" style="stop-color:#348695"/>
	<stop  offset="0.5665" style="stop-color:#459695"/>
	<stop  offset="0.7634" style="stop-color:#347995"/>
	<stop  offset="1" style="stop-color:#459695"/>
</linearGradient>
<path fill="url(#SVGID_2_)" stroke="#FFFFFF" stroke-miterlimit="10" d="M1003,416.4v331c0,0-27.1,9.4-46.4,0
	c-19.3-9.4-25.7,15.6-57,8.2c-31.3-7.3-44.7-22.4-60.7-7.7c-6.7,6.1-21.5,6.4-31.6,4.8c-7-1.1-21.9-4.1-21.3-7.9
	c2-13.3-0.4-328.4-0.4-328.4H1003z"/>
</svg>
