<?xml version="1.0" encoding="utf-8"?>
<!-- Generator: Adobe Illustrator 18.1.1, SVG Export Plug-In . SVG Version: 6.00 Build 0)  -->
<svg version="1.1" id="Layer_1" xmlns="http://www.w3.org/2000/svg" xmlns:xlink="http://www.w3.org/1999/xlink" x="0px" y="0px"
	 viewBox="0 0 1000 1000" enable-background="new 0 0 1000 1000" xml:space="preserve">
<path fill="#459695" stroke="#FFFFFF" stroke-miterlimit="10" d="M-527.7,900.4v654.2c0,0-53.6,18.6-91.7,0s-50.8,30.8-112.6,16.2
	c-61.9-14.4-88.3-44.3-120-15.2c-13.2,12.1-42.5,12.6-62.5,9.5c-13.8-2.2-43.3-8.1-42.1-15.6c4-26.3-0.8-649-0.8-649L-527.7,900.4
	L-527.7,900.4z"/>
<line fill="none" stroke="#FFFFFF" stroke-width="0.9858" stroke-miterlimit="10" x1="-657.3" y1="1556.1" x2="-657.3" y2="902.4"/>
<line fill="none" stroke="#FFFFFF" stroke-miterlimit="10" x1="-586.6" y1="1561.5" x2="-586.6" y2="902.4"/>
<polyline fill="#231F20" stroke="#FFFFFF" stroke-width="0.9835" stroke-miterlimit="10" points="-847,1551.6 -847,904.5 
	-847,903.4 -847,902.4 "/>
<polyline fill="#231F20" stroke="#FFFFFF" stroke-width="0.9981" stroke-miterlimit="10" points="-771.3,902.4 -771.3,903.4 
	-771.3,1558.7 "/>
<g opacity="0.7">
	<path fill="#459695" d="M597,0h-81.8c0,0,5.7,711.1,1,741.3c-1.4,8.8,33,15.4,49.4,18c9.5,1.5,20.6,2.1,31.4,1.7V0z"/>
	<path fill="#459695" d="M812.1,0H680.8v736.4c22.9,5.4,50.4,20.1,91.1,29.4c15.8,3.6,29.1,3.6,40.1,1.9V0z"/>
	<path fill="#348695" d="M683.2,0H597v760.8c15.6-0.9,30.4-4.5,39.3-12.4c15.6-13.9,30-16.1,47-12.4V0H683.2z"/>
	<path fill="#348695" d="M890.7,0h-80.4v767.2c35-6.4,52-31.3,80.4-23.4V0z"/>
	<path fill="#459695" d="M887.9,0v744.5c2.2,0.6,4.3,1.5,6.5,2.6c44.7,21.2,107.5,0,107.5,0V0H887.9z"/>
</g>
<g opacity="0.7">
	<path fill="#459695" d="M77.3,0H0c0,0,5.3,711.1,1,741.3c-1.2,8.8,31.2,15.4,46.6,18c8.9,1.5,19.4,2.1,29.6,1.7V0z"/>
	<path fill="#459695" d="M278.7,0H154.7v736.4c21.5,5.4,47.6,20.1,86.2,29.4c15,3.6,27.5,3.6,37.9,1.9V0H278.7z"/>
	<path fill="#348695" d="M156.9,0H75.3v760.8c14.6-0.9,28.9-4.5,37.2-12.4c14.6-13.9,28.5-16.1,44.5-12.4L156.9,0L156.9,0z"/>
	<path fill="#348695" d="M354.5,0h-76.1v767.2c33-6.4,49-31.3,76.1-23.4V0z"/>
	<path fill="#459695" d="M352.4,0v744.5c2,0.6,4,1.5,6.1,2.6c42.3,21.2,101.6,0,101.6,0V0H352.4z"/>
</g>
<g>
	<path fill="#459695" d="M1617.4,256.1h-70c0,0,4.7,622.7,0.8,649c-1.2,7.7,28.3,13.4,42.1,15.6c8.1,1.2,17.6,2,26.9,1.6V256.1
		H1617.4z"/>
	<path fill="#459695" d="M1803.2,256.1h-112.3v644.7c19.6,4.7,43.1,17.6,77.9,25.7c13.6,3.2,24.7,3.4,34.4,1.8L1803.2,256.1
		L1803.2,256.1z"/>
	
		<linearGradient id="SVGID_1_" gradientUnits="userSpaceOnUse" x1="818.3568" y1="776.4" x2="855.6568" y2="776.4" gradientTransform="matrix(1.9763 0 0 -1.9763 0 2123.5178)">
		<stop  offset="0" style="stop-color:#459695"/>
		<stop  offset="0.3013" style="stop-color:#348695"/>
		<stop  offset="1" style="stop-color:#347995"/>
	</linearGradient>
	<path fill="url(#SVGID_1_)" d="M1690.9,256.1h-73.7v666c13.2-0.8,26.1-4,33.6-10.9c13.2-12.3,25.7-14,40.1-10.9V256.1z"/>
	<path fill="#348695" d="M1871.9,256.1h-68.8v671.7c29.8-5.7,44.5-27.5,68.8-20.6V256.1z"/>
	<path fill="#459695" d="M1871.9,256.1v651.8c1.8,0.6,3.6,1.4,5.5,2.4c38.1,18.6,91.7,0,91.7,0V256.1H1871.9L1871.9,256.1z"/>
</g>
<linearGradient id="SVGID_2_" gradientUnits="userSpaceOnUse" x1="785.6" y1="413.3048" x2="1003" y2="413.3048" gradientTransform="matrix(1.9763 0 0 -1.9763 0 2123.5178)">
	<stop  offset="0.1067" style="stop-color:#459695"/>
	<stop  offset="0.2149" style="stop-color:#348695"/>
	<stop  offset="0.3249" style="stop-color:#347995"/>
	<stop  offset="0.4394" style="stop-color:#348695"/>
	<stop  offset="0.5665" style="stop-color:#459695"/>
	<stop  offset="0.7634" style="stop-color:#347995"/>
	<stop  offset="1" style="stop-color:#459695"/>
</linearGradient>
<path fill="url(#SVGID_2_)" stroke="#FFFFFF" stroke-miterlimit="10" d="M1982.2,970.2v654.2c0,0-53.6,18.6-91.7,0
	c-38.1-18.6-50.8,30.8-112.6,16.2c-61.9-14.4-88.3-44.3-120-15.2c-13.2,12.1-42.5,12.6-62.5,9.5c-13.8-2.2-43.3-8.1-42.1-15.6
	c4-26.3-0.8-649-0.8-649H1982.2z"/>
</svg>
