<?xml version="1.0" encoding="utf-8"?>
<!-- Generator: Adobe Illustrator 18.1.1, SVG Export Plug-In . SVG Version: 6.00 Build 0)  -->
<svg version="1.1" id="Layer_1" xmlns="http://www.w3.org/2000/svg" xmlns:xlink="http://www.w3.org/1999/xlink" x="0px" y="0px"
	 viewBox="0 0 334 450.9" enable-background="new 0 0 334 450.9" xml:space="preserve">
<path opacity="0.6" fill="#231F20" d="M166.8,86.5l-3.1-4.2c-0.4-0.6-0.5-1.4-0.1-2.1l3.1-5.5c0.2-0.3,0.3-0.6,0.3-1V57.5
	c0-0.4,0.1-0.8,0.4-1.2l16.5-21.9c0-0.1,0.1-0.1,0.2-0.2c0.9-1,9.9-9.9,19.4-9.4c10,0.5,19,1,28.5,5c9.5,4,17.5,19.5,16,31
	c-1.2,9.2-9.5,24.5-12.3,37.1c-0.6,2.8-6.6-0.5-8.2,1.4c-7.1,8-16.4,16.3-20.1,18.8c-0.7,0.4-1.5,0.4-2.2,0l-0.2-0.1
	c-1.3-0.9-3.1,0.1-3,1.6l0.4,16c0,1.3-1.3,2.3-2.5,1.9l-2.1-0.7c-1.3-0.4-2.6,0.6-2.5,2l1.6,17.7c0.1,0.5,0.3,1,0.8,1.4l4.4,3.3
	c0.6,0.4,0.8,1.1,0.8,1.8l-1.8,12.8c0,0.4-0.2,0.7-0.4,1l-1.7,2c-0.3,0.3-0.4,0.8-0.4,1.2l1,146.7c0,1.1-0.9,1.9-1.9,1.9h0
	c-1.1,0-2,0.9-1.9,2.1l2.8,40.6c0,0.2,0.1,0.4,0.1,0.5l21.9,59.7l19.2,53.6c0.4,1.2-0.4,2.4-1.6,2.6l-58.6,6.6
	c-0.8,0.1-1.6-0.4-2-1.1l-17.7-38c-0.7-1.5-2.8-1.5-3.5,0L135.9,498c-0.5,1-1.7,1.4-2.6,0.9l-47.7-25.7c-0.8-0.5-1.2-1.5-0.9-2.4
	l21.2-55.5c0.1-0.3,0.1-0.5,0.1-0.8l-3.5-54.5l-5-131.2c0-0.1,0-0.1,0-0.2l3.5-46.5c0-0.2,0.1-0.5,0.2-0.7l16.8-35.5
	c0.1-0.1,0.1-0.2,0.2-0.3l19.3-26.7c0.1-0.1,0.1-0.1,0.2-0.2l13.8-14.3c0.3-0.4,0.5-0.8,0.5-1.3v-7.7c0-1.1,0.9-2,2-1.9l12.2,0.4
	c0.4,0,0.8,0.1,1.1,0.4l2.2,1.6l-2.4-8.7C167.1,86.9,167,86.7,166.8,86.5z"/>
</svg>
