<?xml version="1.0" encoding="utf-8"?>
<!-- Generator: Adobe Illustrator 18.1.1, SVG Export Plug-In . SVG Version: 6.00 Build 0)  -->
<svg version="1.1" xmlns="http://www.w3.org/2000/svg" xmlns:xlink="http://www.w3.org/1999/xlink" x="0px" y="0px"
	 viewBox="0 0 1400 800" enable-background="new 0 0 1400 800" xml:space="preserve">
<g id="buildings">
	<rect id="bd_left_3" y="124" fill="#363636" width="85" height="676"/>
	<rect id="bd_left_2" x="73" y="199" fill="#464646" width="98" height="601"/>
	<rect id="bd_left_1_1_" x="167.5" y="28.6" fill="#555555" width="130" height="777.4"/>
	<rect id="bd_left_1" x="283" y="98" fill="#6A6969" width="130" height="702"/>
	<rect id="bd_left_3_1_" x="1315" y="126" fill="#363636" width="85" height="676"/>
	<rect id="bd_left_2_1_" x="1229" y="201" fill="#464646" width="98" height="601"/>
	<rect id="bd_left_1_3_" x="1102.5" y="152" fill="#555555" width="130" height="656"/>
	<rect id="bd_left_1_2_" x="987" y="28.6" fill="#6A6969" width="130" height="773.4"/>
	<rect id="bd_left_1_4_" x="871" y="69.8" fill="#7A7A7A" width="130" height="729.6"/>
	<rect id="bd_left_1_6_" x="743" y="134.1" fill="#999999" width="130" height="665.9"/>
	<rect id="bd_left_1_5_" x="401" y="57" fill="#7A7A7A" width="130" height="742.4"/>
</g>
<g id="Layer_2">
	<rect x="324.1" y="313.9" fill="#DBB248" width="55.3" height="70.1"/>
	<rect x="320.1" y="545" fill="#DBB248" width="59.3" height="49"/>
	<rect x="320.1" y="144" fill="#DBB248" width="60.4" height="76.4"/>
	<rect x="237.6" y="345.6" fill="#DBA046" width="43.6" height="51.6"/>
	<rect x="223.6" y="665.9" fill="#DBA046" width="47.6" height="52.5"/>
	<rect x="193.6" y="492.6" fill="#DBA046" width="47.6" height="36.7"/>
	<rect x="97.6" y="401.9" fill="#DBA046" width="47.6" height="36.7"/>
	<rect x="183.6" y="178.1" fill="#DBA046" width="47.6" height="56.2"/>
	<rect x="231.6" y="57" fill="#DBA046" width="47.6" height="56.2"/>
	<rect x="95" y="251" fill="#DB9B37" width="27" height="72"/>
	<rect x="92.5" y="557.3" fill="#DB9B37" width="29" height="79.5"/>
	<rect x="131" y="697" fill="#DB9B37" width="29" height="79.5"/>
	<rect x="15.6" y="168.5" fill="#DB912B" width="26.9" height="30.5"/>
	<rect x="35.6" y="301.1" fill="#DB912B" width="26.9" height="37.5"/>
	<rect x="12.5" y="449.6" fill="#DB912B" width="23" height="35.4"/>
	<rect x="35.6" y="577.1" fill="#DB912B" width="26.9" height="37.5"/>
	<rect x="42.5" y="754.1" fill="#DB912B" width="23" height="37.5"/>
	<rect x="1020.6" y="648.9" fill="#DBB248" width="59.3" height="70.1"/>
	<rect x="1020.6" y="457" fill="#DBB248" width="59.3" height="49"/>
	<rect x="1019.5" y="276" fill="#DBB248" width="60.4" height="76.4"/>
	<rect x="1019.5" y="62.2" fill="#DBB248" width="60.4" height="76.4"/>
	<rect x="903.9" y="554.9" fill="#DBB248" width="69" height="81.5"/>
	<rect x="903.9" y="386.4" fill="#DBB248" width="69" height="57"/>
	<rect x="899.6" y="187.1" fill="#DBB248" width="73.3" height="92.7"/>
	<rect x="775.9" y="345.2" fill="#DBB248" width="65" height="75.2"/>
	<rect x="775.9" y="649.8" fill="#DBB248" width="69" height="74.4"/>
	<rect x="775.9" y="477.8" fill="#DBB248" width="69" height="52"/>
	<rect x="771.6" y="186.4" fill="#DBB248" width="73.3" height="84.6"/>
	<rect x="426.6" y="261.4" fill="#DBB248" width="74.7" height="100.1"/>
	<rect x="426.6" y="620.3" fill="#DBB248" width="74.7" height="93.4"/>
	<rect x="426.6" y="423.1" fill="#DBB248" width="74.7" height="65.3"/>
	<rect x="425.5" y="87" fill="#DBB248" width="75.8" height="101.4"/>
	<rect x="1128.8" y="337.6" fill="#DBA046" width="43.6" height="90.6"/>
	<rect x="1138.8" y="637.9" fill="#DBA046" width="47.6" height="52.5"/>
	<rect x="1168.8" y="473.6" fill="#DBA046" width="47.6" height="36.7"/>
	<rect x="1158.8" y="190.1" fill="#DBA046" width="47.6" height="56.2"/>
	<rect x="1278" y="253" fill="#DB9B37" width="27" height="50.1"/>
	<rect x="1248.5" y="402" fill="#DB9B37" width="29" height="79.5"/>
	<rect x="1278.5" y="567" fill="#DB9B37" width="29" height="79.5"/>
	<rect x="1240" y="699" fill="#DB9B37" width="29" height="79.5"/>
	<rect x="1357.5" y="170.5" fill="#DB912B" width="26.9" height="30.5"/>
	<rect x="1357.5" y="303.1" fill="#DB912B" width="26.9" height="37.5"/>
	<rect x="1334.5" y="421.6" fill="#DB912B" width="23" height="35.4"/>
	<rect x="1357.5" y="579.1" fill="#DB912B" width="26.9" height="37.5"/>
	<rect x="1334.5" y="756.1" fill="#DB912B" width="23" height="37.5"/>
</g>
</svg>
